<svg xmlns="http://www.w3.org/2000/svg" viewBox="0 0 500 500"><g id="ade2ce18-d386-4371-b8bd-d461db6cb64f" data-name="Layer 2"><g id="a2f9b112-4de0-44fc-98cf-1ca5b6c8e98b" data-name="Light Variant"><rect x="220.46" y="12.24" width="59.08" height="59.08" transform="translate(43.68 189.01) rotate(-45)" style="fill:#f4032b"/><rect x="220.46" y="428.68" width="59.08" height="59.08" transform="translate(750.79 605.46) rotate(135)" style="fill:#f4032b"/><polygon points="145.89 312.33 83.55 250 208.22 125.33 166.45 83.55 41.78 208.22 0 250 41.78 291.78 104.11 354.11 104.11 354.11 145.89 395.89 145.89 395.89 354.11 187.66 416.45 250 291.78 374.67 333.55 416.45 458.22 291.78 500 250 458.22 208.22 395.89 145.89 395.89 145.89 354.11 104.11 354.11 104.11 145.89 312.33" style="fill:#fff"/></g></g></svg>